<?xml version="1.0" encoding="UTF-8"?><svg id="Calque_1" xmlns="http://www.w3.org/2000/svg" viewBox="0 0 407.48 447.14"><defs><style>.cls-1{fill:#fff;}</style></defs><g><path class="cls-1" d="M406.05,103.88c-2.25-14.55-7.05-28.4-14.25-41.13-14.12-25.28-38.03-45.33-65.56-55C312.9,2.98,298.76,.39,284.23,.06c-3.44-.12-6.83-.02-10.11,.08l-.78,.04c-.87,.08-1.74,.16-2.62,.24-2.69,.24-5.48,.49-8.26,.9l-.13,.02c-8.23,1.41-15.24,3.24-21.42,5.6-12.95,4.71-25.43,11.77-37.08,20.95-5.06,3.94-9.82,8.13-14.46,12.73-.03,.03-.09,.04-.12,0-3.93-3.09-8.02-6.03-12.23-8.77-11.7-7.5-23.5-13.03-35.08-16.44-12.23-3.61-25.48-4.96-38.35-3.91-12.47,1.06-24.49,3.88-35.73,8.4L19.69,39.27c-.11,.04-.06,.2,.05,.18l51.2-8.55c10.59-1.77,21.43-1.94,32.19-.5,10.31,1.43,19.99,4.6,28.75,9.42,8.16,4.51,16.21,10.71,23.88,18.41,7.06,7.2,13.45,15.41,18.5,23.8l9.18,14.42s.01,.03,.01,.05v216.36c2.76,7.87,10.25,13.52,19.07,13.52,9.37,0,17.25-6.38,19.53-15.04V66.72s.01-.05,.03-.07c10.41-9.56,21.72-16.74,33.02-20.8l.13-.05c4.71-1.82,9.7-2.85,13.53-3.54,1.31-.19,2.67-.31,4.1-.44,.95-.09,1.9-.17,2.85-.28h0l.92-.03c2.24-.06,4.35-.12,6.43-.04h.1c10.13,.23,19.92,2.01,29.12,5.31,18.23,6.4,34.04,19.64,43.4,36.33,4.74,8.38,7.9,17.5,9.39,27.11,1.45,9.19,1.22,19.01-.67,29.16-3.37,17.99-12.28,37.31-26.47,57.39-5.22,7.33-11.05,14.75-17.44,22.2-2.75,3.21-5.59,6.42-8.54,9.63,0,0-.01,.02-.02,.03-1.19,2.64-1.86,5.55-1.89,8.63-.12,11.93,9.75,21.85,21.67,21.8,4.36-.02,8.42-1.33,11.81-3.58,0,0,.01-.01,.02-.02,2.52-2.76,4.97-5.51,7.35-8.27,7.56-8.75,14.48-17.53,20.88-26.5,17.86-25.37,28.78-49.48,33.37-73.71,2.76-14.76,3.06-29.26,.88-43.1Z"/><g><path class="cls-1" d="M5.72,52.58s-2.34-.63-5.33-1.76c-.13,.09-.26,.17-.39,.26,134.14,127.88,209.06,18.71,209.06,18.71,0,0-110.41,13.05-203.34-17.21Z"/><path class="cls-1" d="M.39,50.81c88.31,31.69,210.6,19.37,208.67,18.97,0,0-55.05-121.72-208.67-18.97Z"/><path class="cls-1" d="M185.99,73.57c-9.95-17.08-26.33-45.41-42.7-58.05,6.73-1.21,56.37,63.31,42.7,58.05Z"/><path class="cls-1" d="M152.15,73.15c-8.11-17.89-21.55-47.41-35.59-62.23,5.84-.45,48.9,69.82,35.59,62.23Z"/><path class="cls-1" d="M178.94,76.41c-15.25,10.13-44.19,35.55-62.36,35.21,11.5,4.02,69.28-49.63,62.36-35.21Z"/><path class="cls-1" d="M141.8,73.51c-9.78,16.87-32.94,33.31-50.99,31.9,18.96-2.51,36.85-14.94,46.57-31.4,.75-3.28,5.34-4.81,4.42-.5Z"/><path class="cls-1" d="M109.98,72.56c-11.96,6.4-35.58,24.2-48.43,23.11,7.49,3.11,55.11-35.99,48.43-23.11Z"/><path class="cls-1" d="M76.05,69.55c-3.28,.38-31.97,12.3-38.06,10.99,6.13-.15,45.85-21.48,38.06-10.99Z"/><path class="cls-1" d="M33.45,60.98c-5.58,.51-16.97,2.89-21.4,.81,2.75,1.64,26.74-5.81,21.4-.81Z"/><path class="cls-1" d="M56.12,65.6c-6.91-10.51-16.67-22.4-28.21-27.49,5.24-3.35,41.57,30.88,28.21,27.49Z"/><path class="cls-1" d="M98.87,70.2c-9.83-13.77-25.09-33.23-39.97-42.56,5.55-1.87,54.24,46.61,39.97,42.56Z"/><path class="cls-1" d="M123.62,72.09c-6.28-18.28-16.48-41.61-33.1-53.45,9.02-2.57,46.98,60.57,33.1,53.45Z"/><path class="cls-1" d="M209.47,73.38c-65.07,4.3-146.74,2.62-203.55-21.53,61.39,18.43,130.33,21.01,194.07,15.28,3.58-.33,6.51-.69,8.72-.95,4.66-.63,5.54,6.82,.76,7.19Z"/></g></g><g><path class="cls-1" d="M288.16,300.46c-4.11-2.16-8.7-2.68-13.17-1.79-2.04,.41-3.88,1.52-5.22,3.11l-61.97,73.41c-3.77,4.47-10.68,4.38-14.34-.18l-94.87-118.32c-4.78-5.96-11.96-9.48-19.59-9.61l-3.55-.06c-2.12-.04-4.2,.65-5.87,1.95-3.35,2.63-5.97,6.01-7.67,9.8-1.64,3.65-.77,7.95,2.18,10.66,58.17,53.29,100.75,108.91,128.15,166.98,1.51,3.2,4.7,5.26,8.23,5.32h0c3.72,0,7.1-2.15,8.65-5.53,16.51-35.99,47.58-75.42,86.12-115.96,2.57-2.7,3.26-6.69,1.77-10.1-1.8-4.12-4.8-7.56-8.85-9.69Z"/><path class="cls-1" d="M200.48,447.14c-5.72-.1-10.71-3.32-13.11-8.41-27.03-57.29-69.73-112.91-126.92-165.31-4.67-4.28-6.06-11.05-3.46-16.85,2.07-4.61,5.28-8.71,9.27-11.84,2.62-2.06,5.93-3.16,9.29-3.1l3.55,.06c9.27,.16,17.91,4.4,23.71,11.63l94.87,118.32c1,1.25,2.3,1.45,2.99,1.46,.73,0,1.99-.16,3.02-1.38l61.97-73.41c2.14-2.54,5.09-4.29,8.3-4.92,5.87-1.17,11.66-.37,16.74,2.31h0c5.01,2.64,8.91,6.9,11.28,12.3,2.37,5.42,1.27,11.69-2.8,15.98-42.4,44.6-70.24,82.06-85.13,114.5-2.42,5.27-7.74,8.68-13.55,8.68ZM75.29,252.43c-.87,0-1.71,.28-2.38,.81-2.62,2.05-4.72,4.74-6.08,7.77-.69,1.54-.33,3.34,.9,4.47,58.23,53.35,101.76,110.09,129.39,168.66,.64,1.35,1.96,2.2,3.45,2.22,1.52,0,2.99-.94,3.65-2.39,15.39-33.54,43.88-71.95,87.11-117.43,1.07-1.13,1.37-2.79,.74-4.22-1.38-3.14-3.6-5.59-6.42-7.08-2.87-1.51-6.19-1.94-9.61-1.27-.82,.16-1.58,.62-2.15,1.3l-61.97,73.42c-2.84,3.37-7.01,5.31-11.4,5.21-4.41-.06-8.51-2.06-11.27-5.5l-94.87-118.32c-3.78-4.72-9.42-7.49-15.47-7.59l-3.54-.06h-.07Z"/></g></svg>