<?xml version="1.0" encoding="UTF-8"?><svg id="Calque_1" xmlns="http://www.w3.org/2000/svg" viewBox="0 0 380.11 417.86"><defs><style>.cls-1{fill:#fff;}.cls-2{fill:#00983a;}</style></defs><g><g><path class="cls-1" d="M5.27,54.83s-2.16-.58-4.91-1.63c-.12,.08-.24,.16-.36,.24,123.61,117.84,192.65,17.24,192.65,17.24,0,0-101.75,12.03-187.38-15.86Z"/><path class="cls-1" d="M.36,53.21c81.37,29.21,194.07,17.85,192.29,17.49,0,0-50.73-112.16-192.29-17.49Z"/><path class="cls-1" d="M171.39,74.18c-9.17-15.74-24.26-41.85-39.34-53.5,6.2-1.11,51.95,58.34,39.34,53.5Z"/><path class="cls-1" d="M140.21,73.79c-7.47-16.48-19.86-43.69-32.8-57.34,5.38-.41,45.06,64.34,32.8,57.34Z"/><path class="cls-1" d="M164.89,76.79c-14.06,9.34-40.72,32.76-57.46,32.45,10.59,3.71,63.84-45.74,57.46-32.45Z"/><path class="cls-1" d="M130.67,74.12c-9.01,15.55-30.36,30.69-46.99,29.4,17.47-2.31,33.95-13.77,42.91-28.94,.69-3.02,4.92-4.43,4.07-.46Z"/><path class="cls-1" d="M101.34,73.25c-11.02,5.9-32.79,22.3-44.63,21.3,6.9,2.87,50.79-33.16,44.63-21.3Z"/><path class="cls-1" d="M70.08,70.47c-3.02,.35-29.46,11.33-35.07,10.12,5.65-.14,42.26-19.8,35.07-10.12Z"/><path class="cls-1" d="M30.82,62.57c-5.14,.47-15.64,2.67-19.72,.75,2.54,1.51,24.64-5.35,19.72-.75Z"/><path class="cls-1" d="M51.72,66.83c-6.37-9.69-15.36-20.64-25.99-25.33,4.83-3.09,38.31,28.46,25.99,25.33Z"/><path class="cls-1" d="M91.11,71.07c-9.06-12.69-23.12-30.62-36.83-39.22,5.12-1.72,49.98,42.95,36.83,39.22Z"/><path class="cls-1" d="M113.91,72.82c-5.79-16.84-15.19-38.34-30.5-49.25,8.31-2.37,43.29,55.81,30.5,49.25Z"/><path class="cls-1" d="M193.02,74c-59.96,3.96-135.22,2.42-187.58-19.84,56.57,16.98,120.1,19.36,178.84,14.08,3.3-.3,6-.63,8.04-.88,4.29-.58,5.11,6.29,.7,6.63Z"/></g><g><path class="cls-2" d="M377.91,96.61c-2.08-13.41-6.5-26.17-13.13-37.9-13.01-23.3-35.04-41.77-60.41-50.68-12.29-4.4-25.32-6.79-38.72-7.1-3.17-.11-6.3-.02-9.32,.08l-.72,.03c-.8,.08-1.61,.15-2.41,.22-2.48,.22-5.05,.45-7.61,.83l-.12,.02c-7.59,1.3-14.05,2.99-19.74,5.16-11.93,4.34-23.43,10.85-34.17,19.31-4.66,3.63-9.05,7.49-13.32,11.73-.03,.03-.08,.03-.11,0-3.62-2.85-7.39-5.55-11.27-8.08-10.78-6.91-21.66-12.01-32.33-15.15-11.27-3.33-23.48-4.57-35.34-3.61-11.49,.97-22.57,3.58-32.93,7.74L21.88,37.07c-.1,.04-.06,.18,.05,.17l47.18-7.87c9.76-1.63,19.75-1.78,29.67-.46,9.5,1.32,18.42,4.24,26.5,8.68,7.52,4.15,14.94,9.87,22.01,16.97,6.51,6.63,12.39,14.2,17.05,21.93l8.46,13.28s.01,.03,.01,.05v199.37c2.54,7.25,9.45,12.46,17.57,12.46,8.64,0,15.9-5.88,18-13.86V62.36s.01-.05,.03-.07c9.59-8.81,20.02-15.42,30.43-19.17l.12-.04c4.34-1.68,8.93-2.63,12.47-3.26,1.21-.17,2.46-.29,3.78-.41,.87-.08,1.75-.16,2.63-.26h0l.85-.02c2.06-.06,4.01-.11,5.92-.04h.09c9.33,.21,18.35,1.85,26.84,4.89,16.8,5.9,31.37,18.1,39.99,33.48,4.37,7.73,7.28,16.13,8.66,24.98,1.33,8.47,1.13,17.52-.61,26.87-3.1,16.58-11.31,34.38-24.39,52.88-4.81,6.76-10.19,13.59-16.07,20.46-2.53,2.95-5.15,5.91-7.87,8.87,0,0-.01,.02-.02,.02-1.09,2.43-1.72,5.12-1.74,7.95-.11,10.99,8.98,20.13,19.97,20.09,4.02-.02,7.76-1.23,10.88-3.3,0,0,.01,0,.02-.02,2.32-2.54,4.58-5.08,6.77-7.62,6.97-8.06,13.34-16.16,19.24-24.42,16.46-23.38,26.52-45.59,30.75-67.92,2.54-13.6,2.82-26.96,.81-39.71Z"/><path class="cls-2" d="M190.37,302.51c-8.27,0-15.67-5.24-18.4-13.05l-.05-.29V90.03l-8.33-13.08c-4.62-7.67-10.47-15.2-16.93-21.78-7.02-7.04-14.35-12.7-21.81-16.81-7.98-4.39-16.8-7.27-26.19-8.58-9.84-1.31-19.73-1.15-29.4,.46l-47.96,8-.52-1.58,.78-.4,44.38-17.85c10.43-4.2,21.6-6.82,33.18-7.8,11.96-.98,24.29,.28,35.66,3.64,10.75,3.16,21.71,8.29,32.56,15.25,3.69,2.41,7.32,5,10.79,7.7,4.14-4.07,8.37-7.78,12.9-11.31,10.81-8.52,22.39-15.06,34.41-19.44,5.74-2.18,12.25-3.89,19.89-5.2,2.72-.41,5.29-.64,7.77-.86,.83-.07,1.64-.15,2.44-.22l.76-.04c3.05-.09,6.19-.19,9.39-.08,13.48,.3,26.6,2.71,38.98,7.15,25.58,8.98,47.77,27.6,60.88,51.08,6.69,11.83,11.14,24.68,13.23,38.2,2.02,12.85,1.75,26.31-.82,40.01-4.25,22.45-14.36,44.78-30.89,68.27-5.97,8.36-12.28,16.37-19.29,24.49-2.16,2.5-4.45,5.07-6.79,7.64l-.2,.17c-3.36,2.22-7.29,3.42-11.35,3.43h-.09c-5.52,0-10.73-2.19-14.69-6.16-3.98-4-6.14-9.26-6.08-14.81,.03-2.88,.64-5.67,1.82-8.3l.2-.29c2.63-2.86,5.27-5.84,7.83-8.82,5.87-6.85,11.26-13.71,16.02-20.4,13.01-18.41,21.17-36.08,24.24-52.53,1.72-9.26,1.93-18.21,.61-26.58-1.36-8.75-4.24-17.05-8.55-24.69-8.52-15.2-22.92-27.25-39.52-33.08-8.39-3.01-17.32-4.63-26.56-4.84-2.01-.08-4.03-.02-5.97,.03l-.88,.02c-.78,.09-1.67,.17-2.55,.25-1.3,.12-2.54,.23-3.73,.4-3.45,.62-7.99,1.55-12.28,3.21-10.22,3.68-20.55,10.16-30.02,18.81v225.17l-.03,.11c-2.25,8.55-10,14.51-18.85,14.51Zm-16.69-13.49c2.53,7.02,9.22,11.73,16.69,11.73,8.01,0,15.03-5.38,17.12-13.09V61.96l.33-.33c9.69-8.9,20.32-15.59,30.71-19.33,4.53-1.75,9.18-2.71,12.73-3.34,1.26-.18,2.52-.3,3.86-.42,.82-.07,1.64-.15,2.46-.24l.23-.02,.85-.02c1.97-.06,4.01-.11,5.98-.04,9.51,.21,18.63,1.87,27.19,4.94,16.99,5.97,31.74,18.32,40.47,33.88,4.42,7.82,7.36,16.32,8.76,25.28,1.35,8.57,1.14,17.71-.62,27.17-3.13,16.7-11.38,34.61-24.54,53.23-4.79,6.73-10.22,13.64-16.12,20.52-2.55,2.97-5.17,5.93-7.81,8.8-1.05,2.39-1.59,4.9-1.62,7.48-.05,5.08,1.93,9.89,5.57,13.55,3.62,3.64,8.39,5.64,13.44,5.64h.08c3.68-.01,7.25-1.09,10.32-3.1,2.32-2.54,4.56-5.07,6.69-7.53,6.98-8.08,13.25-16.04,19.18-24.36,16.38-23.27,26.39-45.37,30.6-67.57,2.52-13.5,2.8-26.76,.81-39.41h0c-2.06-13.31-6.44-25.96-13.03-37.61-12.91-23.12-34.75-41.44-59.94-50.28-12.21-4.37-25.14-6.74-38.44-7.05-3.15-.12-6.26-.02-9.26,.07l-.71,.03c-.76,.07-1.57,.15-2.37,.22-2.49,.22-5.03,.45-7.56,.83-7.63,1.31-14.03,2.98-19.68,5.13-11.85,4.32-23.27,10.77-33.93,19.18-4.67,3.63-9,7.45-13.25,11.66l-.56,.55-.73-.48c-3.59-2.82-7.36-5.53-11.2-8.03-10.7-6.86-21.5-11.92-32.1-15.04-11.16-3.3-23.28-4.54-35.02-3.57-11.4,.97-22.4,3.55-32.67,7.68l-37.62,15.13,39.99-6.68c9.85-1.64,19.92-1.8,29.93-.47,9.61,1.33,18.63,4.29,26.81,8.78,7.6,4.2,15.07,9.95,22.21,17.12,6.56,6.69,12.5,14.33,17.18,22.1l8.58,13.48v199.52Z"/></g></g><g><path class="cls-1" d="M269.28,281.49c-3.78-1.99-8.01-2.47-12.14-1.65-1.88,.37-3.57,1.4-4.81,2.87l-57.1,67.65c-3.48,4.12-9.84,4.04-13.22-.17l-87.43-109.03c-4.4-5.49-11.02-8.73-18.05-8.85l-3.27-.06c-1.95-.03-3.87,.6-5.41,1.8-3.09,2.42-5.5,5.54-7.07,9.03-1.51,3.37-.71,7.33,2.01,9.82,53.6,49.11,92.85,100.36,118.09,153.87,1.39,2.95,4.33,4.84,7.59,4.9h0c3.42,0,6.54-1.98,7.97-5.1,15.22-33.16,43.84-69.5,79.36-106.86,2.37-2.49,3.01-6.16,1.63-9.31-1.66-3.8-4.42-6.96-8.15-8.93Z"/><path class="cls-1" d="M188.47,417.86c-5.75-.1-10.75-3.33-13.16-8.44-24.84-52.66-64.1-103.78-116.68-151.96-4.68-4.29-6.08-11.08-3.47-16.9,1.99-4.43,5.07-8.36,8.89-11.36,2.63-2.07,5.97-3.21,9.32-3.12l3.27,.06c8.9,.15,17.19,4.22,22.76,11.16l87.43,109.03c.61,.77,1.41,.89,1.83,.89,.41,0,1.22-.1,1.86-.85l57.1-67.65c2.15-2.55,5.11-4.3,8.33-4.94,5.68-1.13,11.29-.35,16.21,2.24,4.86,2.56,8.64,6.68,10.93,11.92,2.38,5.43,1.28,11.73-2.81,16.03-38.98,41.01-64.57,75.41-78.23,105.18-2.42,5.28-7.75,8.69-13.58,8.69ZM73.12,238.43c-.54,0-1.05,.17-1.45,.49-2.26,1.77-4.08,4.09-5.25,6.71-.43,.95-.21,2.05,.55,2.75,53.77,49.26,93.98,101.68,119.51,155.79,.39,.83,1.2,1.35,2.11,1.36,.91,0,1.84-.59,2.26-1.5,14.24-31.03,40.57-66.53,80.5-108.54,.66-.69,.83-1.71,.45-2.58-1.16-2.65-3.02-4.7-5.38-5.95h0c-2.4-1.26-5.19-1.63-8.06-1.06-.49,.1-.95,.38-1.3,.8l-57.1,67.65c-2.85,3.38-7.03,5.29-11.44,5.23-4.42-.06-8.54-2.06-11.31-5.51l-87.43-109.03c-3.26-4.07-8.13-6.46-13.35-6.54l-3.27-.06h-.04Z"/></g></svg>