<?xml version="1.0" encoding="UTF-8"?><svg id="Calque_1" xmlns="http://www.w3.org/2000/svg" viewBox="0 0 1920 1080"><defs><style>.cls-1,.cls-2{fill:#00973a;}.cls-2{stroke:#00973a;stroke-miterlimit:10;}.cls-3{fill:#03124f;}</style></defs><g><g><g><path class="cls-3" d="M718.25,260.35s-2.7-.72-6.14-2.03c-.15,.1-.3,.2-.45,.3,154.59,147.38,240.94,21.57,240.94,21.57,0,0-127.25,15.05-234.35-19.83Z"/><path class="cls-3" d="M712.11,259.32c101.77,36.53,242.71,22.33,240.49,21.87,0,0-63.44-140.27-240.49-21.87Z"/></g><g><path class="cls-1" d="M1184.29,315.81c-2.6-16.77-8.13-32.73-16.42-47.4-16.27-29.14-43.82-52.24-75.55-63.38-15.38-5.51-31.67-8.49-48.42-8.87-3.97-.14-7.88-.02-11.65,.1l-.9,.04c-1,.1-2.01,.19-3.02,.27-3.1,.28-6.31,.56-9.52,1.04l-.15,.02c-9.49,1.63-17.57,3.74-24.69,6.45-14.92,5.43-29.31,13.57-42.73,24.15-5.83,4.54-11.32,9.37-16.66,14.67-.04,.04-.1,.04-.14,0-4.53-3.56-9.25-6.94-14.1-10.11-13.48-8.64-27.09-15.02-40.43-18.94-14.09-4.16-29.37-5.72-44.19-4.51-14.37,1.22-28.23,4.48-41.18,9.68l-55.51,22.32c-.12,.05-.07,.23,.06,.21l59.01-9.85c12.2-2.04,24.7-2.23,37.1-.58,11.88,1.65,23.04,5.3,33.14,10.85,9.41,5.19,18.68,12.35,27.53,21.22,8.14,8.3,15.5,17.76,21.32,27.42l10.58,16.61s.02,.04,.02,.06v249.35c3.18,9.07,11.82,15.58,21.97,15.58,10.8,0,19.88-7.36,22.51-17.33V272.97s.01-.06,.04-.08c11.99-11.02,25.04-19.29,38.06-23.97l.15-.06c5.43-2.1,11.17-3.28,15.6-4.08,1.51-.22,3.08-.36,4.73-.51,1.09-.1,2.19-.2,3.29-.32,0,0,0,0,0,0l1.06-.03c2.58-.07,5.02-.14,7.41-.05h.11c11.67,.26,22.95,2.31,33.56,6.12,21.01,7.38,39.23,22.64,50.02,41.87,5.46,9.66,9.1,20.17,10.82,31.25,1.67,10.6,1.41,21.91-.77,33.61-3.88,20.74-14.15,42.99-30.51,66.14-6.02,8.45-12.74,17-20.1,25.59-3.17,3.69-6.45,7.39-9.85,11.1,0,0-.02,.02-.02,.03-1.37,3.04-2.15,6.4-2.18,9.94-.13,13.74,11.23,25.18,24.98,25.12,5.03-.02,9.7-1.54,13.61-4.13,0,0,.02-.01,.02-.02,2.9-3.18,5.72-6.35,8.47-9.53,8.71-10.09,16.68-20.21,24.06-30.54,20.59-29.24,33.16-57.02,38.45-84.95,3.18-17.01,3.52-33.72,1.02-49.67Z"/><path class="cls-1" d="M949.75,573.3c-10.34,0-19.58-6.55-23-16.3l-.06-.36v-249.06l-10.43-16.37c-5.78-9.6-13.1-19.01-21.18-27.25-8.78-8.81-17.96-15.89-27.28-21.03-9.99-5.49-21.01-9.1-32.76-10.73-12.31-1.64-24.68-1.44-36.78,.58l-59.97,10.01-.39-1.01c-.17-.59,.14-1.21,.71-1.43l55.5-22.32c13.05-5.25,27.01-8.53,41.49-9.76,14.96-1.22,30.38,.35,44.59,4.55,13.45,3.96,27.15,10.37,40.71,19.07,4.62,3.02,9.16,6.25,13.5,9.64,5.17-5.09,10.47-9.73,16.14-14.15,13.52-10.66,28-18.84,43.03-24.31,7.17-2.73,15.31-4.86,24.88-6.5,3.4-.51,6.61-.79,9.71-1.07,1.05-.09,2.05-.18,3.06-.28l.95-.04c3.82-.12,7.75-.24,11.74-.1,16.85,.38,33.26,3.39,48.75,8.94,31.98,11.23,59.73,34.51,76.13,63.88,8.36,14.79,13.93,30.87,16.54,47.77,2.53,16.07,2.18,32.9-1.02,50.03-5.32,28.08-17.96,56.01-38.63,85.37-7.45,10.45-15.34,20.46-24.12,30.62-2.7,3.13-5.56,6.34-8.49,9.55l-.22,.19c-4.22,2.79-9.13,4.28-14.21,4.31h-.11c-6.9,0-13.42-2.73-18.36-7.7-4.97-5-7.67-11.57-7.6-18.51,.03-3.6,.8-7.09,2.28-10.37l.2-.31c3.32-3.61,6.63-7.34,9.83-11.08,7.35-8.58,14.09-17.16,20.04-25.51,16.27-23.02,26.47-45.13,30.33-65.71,2.15-11.58,2.41-22.77,.76-33.24-1.7-10.94-5.3-21.33-10.7-30.88-10.65-19.01-28.67-34.09-49.43-41.39-10.49-3.76-21.67-5.8-33.23-6.05-2.52-.1-5.03-.03-7.47,.04l-1.06,.03c-1.02,.12-2.12,.22-3.22,.32-1.63,.15-3.17,.29-4.67,.5-4.32,.78-10,1.94-15.36,4.02-12.79,4.6-25.71,12.71-37.55,23.53v281.62l-.04,.14c-2.82,10.68-12.51,18.14-23.56,18.14Zm-20.89-16.85c3.16,8.79,11.53,14.68,20.89,14.68,10.03,0,18.82-6.73,21.43-16.39V272.49l.39-.4c12.13-11.15,25.42-19.52,38.42-24.19,5.66-2.19,11.47-3.38,15.92-4.18,1.57-.23,3.15-.37,4.82-.52,1.08-.1,2.17-.2,3.26-.32l1.16-.03c2.47-.07,5.02-.14,7.48-.05,11.89,.26,23.3,2.34,34,6.18,21.24,7.46,39.69,22.91,50.6,42.36,5.53,9.77,9.21,20.41,10.95,31.61,1.69,10.72,1.43,22.15-.77,33.98-3.91,20.89-14.23,43.29-30.69,66.57-5.98,8.41-12.77,17.04-20.16,25.67-3.2,3.73-6.49,7.43-9.78,11.02-1.29,2.91-1.98,6.09-2.01,9.36-.06,6.36,2.41,12.38,6.97,16.96,4.53,4.56,10.5,7.07,16.82,7.07h.1c4.61-.02,9.07-1.36,12.92-3.88,2.9-3.18,5.71-6.34,8.37-9.42,8.74-10.11,16.58-20.08,23.99-30.46,20.49-29.1,33.01-56.75,38.27-84.52,3.16-16.89,3.5-33.47,1.01-49.3h0c-2.57-16.64-8.05-32.47-16.29-47.04-16.15-28.91-43.47-51.84-74.97-62.89-15.27-5.47-31.45-8.44-48.09-8.81-3.93-.14-7.83-.02-11.59,.09l-.89,.04c-.95,.09-1.96,.18-2.97,.27-3.12,.28-6.29,.56-9.46,1.03-9.54,1.64-17.55,3.73-24.61,6.41-14.83,5.4-29.1,13.47-42.44,23.99-5.83,4.54-11.25,9.31-16.57,14.59l-.69,.68-.9-.59c-4.5-3.53-9.21-6.92-14.01-10.05-13.39-8.58-26.9-14.91-40.15-18.81-13.96-4.12-29.1-5.67-43.8-4.47-14.26,1.21-28.01,4.44-40.86,9.61l-47.2,18.98,50.18-8.38c12.31-2.05,24.9-2.25,37.43-.59,12.02,1.67,23.29,5.36,33.51,10.98,9.5,5.24,18.84,12.45,27.77,21.4,8.2,8.36,15.63,17.91,21.48,27.63l10.73,16.86,.02,.37v249.16Zm-189.95-315.97s0,0,0,0h0Z"/></g></g><g><path class="cls-3" d="M1048.43,547.03c-4.73-2.49-10.02-3.09-15.18-2.06-2.35,.47-4.47,1.75-6.02,3.58l-71.42,84.61c-4.35,5.15-12.31,5.05-16.53-.21l-109.34-136.36c-5.5-6.86-13.78-10.92-22.58-11.07l-4.09-.07c-2.44-.04-4.84,.74-6.76,2.25-3.86,3.03-6.88,6.93-8.85,11.3-1.89,4.21-.89,9.17,2.51,12.28,67.04,61.42,116.12,125.51,147.69,192.44,1.74,3.68,5.42,6.06,9.49,6.13h0c4.28,0,8.18-2.48,9.97-6.38,19.03-41.48,54.83-86.91,99.25-133.65,2.96-3.11,3.76-7.7,2.04-11.64-2.08-4.75-5.53-8.71-10.2-11.17Z"/><path class="cls-3" d="M947.38,717.45c-7.14-.12-13.36-4.13-16.35-10.48-31.08-65.87-80.18-129.83-145.96-190.09-5.82-5.33-7.55-13.77-4.31-20.99,2.48-5.52,6.31-10.42,11.09-14.16,3.19-2.5,7.18-3.87,11.26-3.87,.1,0,.21,0,.31,0l4.09,.07c11.09,.19,21.43,5.26,28.37,13.91l109.34,136.36c.8,1,1.84,1.16,2.39,1.17,.46-.01,1.59-.12,2.42-1.1l71.42-84.61c2.67-3.16,6.34-5.34,10.34-6.13,7.09-1.4,14.07-.44,20.2,2.79,6.05,3.19,10.76,8.32,13.61,14.84,2.95,6.76,1.58,14.57-3.49,19.91-48.76,51.3-80.77,94.34-97.85,131.58-3.01,6.56-9.63,10.8-16.87,10.8Zm-144.27-224.41c-.7,0-1.37,.22-1.89,.64-2.85,2.23-5.13,5.15-6.61,8.44-.56,1.24-.27,2.68,.72,3.58,67.24,61.6,117.51,127.14,149.43,194.8,.51,1.08,1.56,1.76,2.75,1.78,1.19,0,2.4-.77,2.94-1.95,17.79-38.78,50.72-83.18,100.64-135.71,.86-.9,1.09-2.23,.59-3.37-1.46-3.33-3.8-5.92-6.78-7.49h0c-3.02-1.59-6.54-2.05-10.17-1.33-.64,.13-1.24,.49-1.69,1.03l-71.42,84.61c-3.49,4.13-8.57,6.49-13.97,6.49-.08,0-.15,0-.23,0-5.49-.07-10.61-2.57-14.04-6.85l-109.34-136.36c-4.11-5.12-10.22-8.12-16.78-8.23l-4.09-.07h-.06Z"/></g></g><g><path class="cls-2" d="M662.28,857.49v33h-11.44v-91.24h11.17v11.47c8.34-9.52,18.17-14.1,30.41-12.92,8.82,.85,16.24,4.66,21.92,11.5,12.69,15.26,11.67,40.38-2.09,53.17-13.73,12.76-33.43,11.16-49.96-4.99Zm48.71-22.81c.18-14.69-10.45-26.07-24.38-26.09-13.27-.02-24.17,11.25-24.36,25.21-.21,14.84,10.33,26.23,24.27,26.25,13.94,.02,24.29-10.72,24.47-25.36Z"/><path class="cls-3" d="M1006.35,869.25h-11.78c-.21-3.87-.41-7.5-.63-11.46-18.69,16.48-36.9,17.51-50.21,3.21-13.84-14.86-13.63-41.21,.42-54.47,13.88-13.1,34.12-11.57,49.65,4.44v-32.85c2.24-.2,3.8-.43,5.35-.46,7.18-.14,7.19-.12,7.2,6.82,0,24.27,0,48.54,0,72.81v11.96Zm-12.28-34.69c0-15.12-10.31-26.13-24.37-26.05-13.89,.08-24.48,11.52-24.34,26.29,.14,14.2,11.1,25.3,24.89,25.21,13.51-.09,23.83-11.12,23.82-25.44Z"/><path class="cls-3" d="M545.42,838.39c.09,9,7.26,17.47,16.92,20.57,9.27,2.98,21.02,.32,26.38-7.65,3.98-5.92,8.57-6.02,15.19-4.88-1.03,2.5-1.75,4.98-3.01,7.16-7.53,13.11-24.75,20.32-39.15,16.53-17.6-4.63-28.21-17.89-28.32-35.4-.13-21.22,14.06-36.11,35.36-37.09,19.32-.89,35.14,13.57,36.68,33.51,.5,6.49,.25,6.78-6.1,6.81-16.08,.07-32.16,.11-48.23,.19-1.91,0-3.82,.16-5.71,.25Zm47.92-9.25c-.96-12.03-11.55-20.83-24.43-20.62-12.41,.2-22.59,9.2-23.03,20.62h47.45Z"/><path class="cls-3" d="M1225.75,838.13c.72,16.66,20.25,26.84,35.58,19.31,2.99-1.47,6.45-3.49,7.94-6.2,3.5-6.35,8.65-5.79,15.68-4.84-2.32,4.12-3.93,8.03-6.44,11.25-9.14,11.71-25.59,16.25-40.08,11.41-14.79-4.93-24.28-18.03-24.58-33.91-.4-21.37,14.01-36.6,35.5-37.52,19.66-.84,34.99,13.6,36.65,34.2,.37,4.64-.84,6.31-5.8,6.24-16.26-.23-32.52,0-48.79,.06-1.78,0-3.56,0-5.67,0Zm48.1-9.04c-1.13-11.87-11.3-20.52-23.85-20.57-12.61-.05-22.45,8.28-23.89,20.57h47.74Z"/><path class="cls-3" d="M924.29,869.18h-11.2c-.18-3.84-.34-7.32-.56-11.92-1.83,2.07-2.92,3.36-4.06,4.6-7.35,7.98-16.61,10.7-27.05,8.78-10.94-2.01-17.58-10.47-17.6-21.42-.01-11.1,6.2-19.06,17.76-21.06,7.95-1.38,16.15-1.36,24.25-1.95,2.08-.15,4.17-.28,6.2-.41,0-9.23-3.51-14.35-10.86-16.5-8.45-2.46-18.8,.09-21.39,6.96-2.87,7.6-7.93,6.08-13.3,5.73-1.23-7.5,3.84-16.04,12.04-20.49,20.34-11.05,43.45,.09,45.53,22.91,1.33,14.59,.25,29.39,.25,44.76Zm-12.17-35.35c-9.29,.83-18.32,1.05-27.11,2.61-6.5,1.16-9.65,6.34-9.28,12.18,.37,5.91,4.66,10.31,11.13,11.4,14.21,2.4,26.58-9.69,25.26-26.19Z"/><path class="cls-3" d="M733.25,821.68c.61-9.14,4.89-15.63,12.39-19.9,11.98-6.82,33.92-6.23,41.64,8.94,2.16,4.25,4.17,9.09,4.34,13.74,.55,14.68,.2,29.4,.2,44.6h-11.13v-12.33c-1.88,2.01-2.83,2.91-3.65,3.91-7.19,8.77-16.65,11.83-27.57,10.12-10.94-1.71-17.85-10.09-18.08-21.01-.24-11.39,5.99-19.54,17.75-21.58,7.96-1.38,16.16-1.35,24.25-1.94,2.08-.15,4.17-.3,6.2-.44-.06-9.43-3.78-14.65-11.41-16.67-8.29-2.19-17.35,.84-21.16,7.07q-4.2,6.88-13.78,5.5Zm46.33,12.14c-9.27,.84-18.3,1.07-27.09,2.64-6.46,1.16-9.61,6.4-9.19,12.24,.42,5.9,4.72,10.24,11.21,11.33,14.17,2.38,26.75-10.03,25.08-26.21Z"/><path class="cls-3" d="M1041.43,846.62c3.12,0,5.56-.44,7.72,.14,1.71,.46,4.19,2.01,4.42,3.38,1.85,11.41,23.09,12.4,28.8,5.79,3.99-4.62,2.92-11.09-2.99-13.17-5.07-1.78-10.53-2.42-15.77-3.73-3.84-.96-7.8-1.77-11.37-3.38-12.61-5.68-15.09-21.25-5.1-30.82,12.46-11.94,39.18-8.62,46.57,5.92,1.58,3.11,2.21,6.69,3.25,9.98-7.56,3.14-10.83,2.06-13.58-3.98-4.26-9.37-22-11.43-28.43-3.3-3.65,4.61-2.57,10.64,3.01,13.01,4.59,1.94,9.68,2.7,14.55,3.99,4.01,1.06,8.12,1.85,12,3.27,7.18,2.64,11.89,7.43,12.04,15.56,.15,8.08-3.02,14.57-10.38,18.15-11.33,5.51-22.87,5.01-33.84-1.02-7.32-4.02-10.87-10.62-10.92-19.8Z"/><path class="cls-3" d="M1370.6,809.72h-11.22c-.17-1.99-.27-3.7-.48-5.4-.49-3.9,.96-5.87,5.11-5.22,5.16,.82,7.17-1.16,6.66-6.47-.44-4.61-.09-9.3-.09-14.38h11.37c0,5.42,.16,10.72-.05,16.01-.15,3.77,1.36,5.14,5.08,5.01,4.87-.16,9.76,.18,14.63,.03,4.09-.13,4.08,2.37,4.14,5.28,.06,3.1-.4,5.15-4.35,4.99-6.26-.25-12.54-.07-18.69-.07,0,13.8-.58,26.87,.24,39.84,.43,6.88,6.71,10.87,13.93,11.11,7.1,.24,12.2-3.18,14.55-9.74,2.48-6.92,2.72-7.04,10.87-5.34,2.29,7.41-4.68,18.77-12.97,22.58-18.9,8.68-38.37-3.09-38.69-23.68-.18-11.28-.03-22.56-.03-34.56Z"/><path class="cls-3" d="M1141.5,798.93c2.89,0,4.87,.18,6.81-.04,3.98-.45,6.09,1.02,7.69,4.87,6.13,14.76,12.68,29.35,19.08,44,.42,.96,.92,1.88,1.91,3.9,1.21-2.38,2.1-3.96,2.82-5.61,5.76-13.16,11.48-26.34,17.21-39.51,3.71-8.54,4.86-9.09,15.45-6.73-2.7,6.32-5.31,12.56-8.02,18.75-6.77,15.47-13.67,30.88-20.32,46.4-1.37,3.19-2.91,4.82-6.7,4.73-3.68-.08-5.79-.95-7.35-4.6-8.77-20.47-17.85-40.81-26.8-61.21-.56-1.28-.94-2.63-1.77-4.96Z"/><path class="cls-3" d="M488.07,777.95v80.74c11.41,0,22.2,0,32.99,0q9.6,0,8.5,10.6c-1.63,.09-3.36,.25-5.09,.26-14.1,.02-28.22-.24-42.31,.14-5.27,.14-6.23-1.77-6.19-6.47,.19-26.08,.09-52.15,.09-78.23q0-7.44,7.3-7.33c1.25,.02,2.49,.15,4.71,.3Z"/><path class="cls-3" d="M802.79,799.05h11.01c.3,2.22,.57,4.24,.94,7,9.98-9.95,21.07-11.14,32.34-4.47,7.85,4.65,9.71,12.81,9.31,22.29-3.01,0-5.72,.32-8.29-.13-1.31-.23-3.04-1.64-3.45-2.88-3.12-9.53-8.54-13.44-17.5-12.21-7.85,1.07-12.75,6.87-12.89,16.12-.2,12.77-.01,25.54,.01,38.31,0,1.93,0,3.86,0,6.14h-11.49v-70.16Z"/><path class="cls-3" d="M1307.67,799.14c.19,2.49,.33,4.4,.55,7.38,6.63-7.5,14.29-9.96,23.3-8.44,11.29,1.91,19,11.07,18.4,22.44-.06,1.14-1.78,2.89-2.98,3.13-2.42,.49-5.01,.15-7.76,.15-.34-.97-.69-1.75-.88-2.56-2.14-9.18-7.59-13.37-16.58-12.68-8.09,.62-13.47,6.28-13.77,15.23-.3,8.8-.06,17.62-.06,26.43,0,6.24,0,12.48,0,19.01h-11.91c0-2.42,0-4.52,0-6.62,0-18.7,0-37.41,0-56.11q0-7.9,8.08-7.67c1.06,.03,2.11,.18,3.62,.31Z"/><path class="cls-3" d="M1029.95,799.29v69.81h-11.81v-5.94c0-18.85,0-37.7,0-56.55q0-7.93,8.08-7.67c1.05,.03,2.1,.19,3.73,.35Z"/><path class="cls-3" d="M1030.61,783.36c-.24,4.22-2.28,6.8-6.35,6.8-4.01,0-6.38-2.48-6.37-6.51,.01-3.76,2.19-6.1,6.02-6.27,4.14-.18,6.23,2.21,6.69,5.98Z"/></g></svg>